<?xml version="1.0" standalone="no"?>
<!DOCTYPE svg PUBLIC "-//W3C//DTD SVG 20010904//EN"
 "http://www.w3.org/TR/2001/REC-SVG-20010904/DTD/svg10.dtd">
<svg version="1.0" xmlns="http://www.w3.org/2000/svg"
 width="479.000000pt" height="479.000000pt" viewBox="0 0 479.000000 479.000000"
 preserveAspectRatio="xMidYMid meet">
<metadata>
Created by potrace 1.11, written by Peter Selinger 2001-2013
</metadata>
<g transform="translate(0.000000,479.000000) scale(0.100000,-0.100000)"
fill="#000000" stroke="none">
<path d="M2357 4772 c-10 -10 -17 -24 -17 -30 0 -7 -64 -121 -141 -255 -145
-248 -157 -269 -216 -372 -19 -33 -43 -76 -55 -95 -43 -73 -202 -347 -223
-385 -13 -22 -200 -344 -415 -715 -216 -371 -404 -695 -418 -720 -14 -24 -122
-211 -240 -415 -118 -203 -223 -383 -232 -400 -100 -175 -235 -404 -250 -425
-30 -42 -35 -77 -13 -87 10 -6 937 -9 2263 -9 l2244 1 13 24 c13 27 0 65 -31
90 -9 8 -16 17 -16 21 0 4 -22 46 -50 94 -27 48 -50 89 -50 92 0 10 -155 273
-215 365 -35 53 -66 107 -70 120 -4 13 -63 116 -130 229 -67 113 -133 225
-147 250 -14 25 -115 200 -223 390 -109 190 -210 368 -225 395 -59 107 -135
235 -210 355 -43 69 -124 208 -180 310 -135 242 -116 209 -287 500 -233 397
-353 608 -353 623 0 8 -9 26 -21 41 -24 31 -68 35 -92 8z m64 -219 c7 -16 115
-201 238 -413 253 -435 236 -405 344 -600 44 -80 128 -224 187 -320 59 -96
236 -400 393 -675 156 -275 338 -591 404 -701 66 -111 125 -215 131 -232 6
-17 33 -64 60 -104 53 -79 174 -285 241 -413 24 -44 47 -84 52 -90 5 -5 9 -11
9 -15 0 -6 -4157 -7 -4162 0 -3 3 184 329 414 725 230 396 424 731 432 745 7
14 84 147 170 295 87 149 219 376 293 505 75 129 143 246 152 260 8 14 21 34
26 45 14 25 388 671 503 868 48 81 89 147 93 147 3 0 12 -12 20 -27z"/>
<path d="M1549 3098 c-3 -6 -7 -77 -13 -213 -4 -77 -9 -184 -12 -237 -2 -54
-1 -98 3 -99 4 0 44 -1 88 -2 l79 -1 13 59 c6 33 14 76 18 95 3 19 10 60 15
90 5 30 12 73 16 95 3 22 8 43 11 48 2 4 109 7 237 7 l234 0 4 -24 c6 -31 7
-1678 1 -1709 -3 -14 -12 -22 -26 -23 -12 0 -51 -3 -87 -7 -228 -24 -206 -15
-205 -79 0 -29 3 -57 7 -63 4 -6 165 -9 455 -8 246 1 453 2 458 2 9 1 12 118
3 126 -3 2 -53 8 -208 22 -110 9 -110 10 -109 100 1 92 1 1473 0 1586 l0 77
241 -2 c233 -3 241 -4 243 -23 3 -21 31 -182 40 -225 3 -14 8 -45 12 -70 9
-73 12 -75 95 -73 40 1 78 2 84 2 6 1 10 20 8 49 -1 26 -5 126 -9 222 -5 96
-9 191 -10 210 -2 19 -3 43 -4 53 -1 16 -48 17 -841 17 -462 0 -841 -1 -841
-2z"/>
</g>
</svg>
