<?xml version="1.0" standalone="no"?>
<!DOCTYPE svg PUBLIC "-//W3C//DTD SVG 20010904//EN"
 "http://www.w3.org/TR/2001/REC-SVG-20010904/DTD/svg10.dtd">
<svg version="1.0" xmlns="http://www.w3.org/2000/svg"
 width="479.000000pt" height="479.000000pt" viewBox="0 0 479.000000 479.000000"
 preserveAspectRatio="xMidYMid meet">
<metadata>
Created by potrace 1.11, written by Peter Selinger 2001-2013
</metadata>
<g transform="translate(0.000000,479.000000) scale(0.100000,-0.100000)"
fill="#000000" stroke="none">
<path d="M2356 4774 c-9 -8 -16 -21 -16 -29 0 -7 -94 -174 -208 -371 -115
-198 -334 -575 -487 -839 -153 -264 -333 -574 -400 -690 -67 -115 -238 -410
-380 -655 -409 -707 -669 -1154 -734 -1262 -12 -21 -13 -32 -5 -45 11 -17 121
-18 2263 -20 l2252 -2 14 23 c17 25 12 50 -16 81 -9 11 -43 67 -75 125 -91
167 -214 378 -271 467 -28 45 -58 96 -66 115 -8 18 -72 130 -142 248 -70 118
-256 440 -412 715 -157 275 -325 563 -373 640 -47 77 -106 176 -130 220 -69
127 -251 445 -444 773 -97 167 -199 346 -226 399 -27 52 -55 102 -61 109 -15
19 -64 18 -83 -2z m54 -202 c0 -5 90 -164 201 -353 207 -355 378 -652 444
-774 21 -38 83 -144 140 -235 56 -91 164 -275 240 -410 278 -491 615 -1073
656 -1132 11 -14 19 -33 19 -40 0 -8 30 -62 66 -119 74 -117 188 -311 257
-439 l45 -85 -2074 1 c-1141 0 -2077 3 -2080 7 -6 5 33 74 331 587 172 296
488 841 560 965 56 97 365 630 803 1385 152 261 298 514 326 563 45 78 66 103
66 79z"/>
<path d="M1539 3028 c0 -40 -2 -91 -4 -113 -2 -22 -5 -114 -7 -205 l-3 -164
78 -1 c43 0 82 2 87 5 5 3 22 82 39 175 17 94 34 180 36 193 l5 22 234 0 234
0 4 -57 c6 -94 3 -1681 -3 -1687 -3 -3 -75 -14 -160 -23 l-154 -18 -2 -62 c-1
-35 1 -64 5 -64 4 -1 211 -2 460 -3 294 -1 456 2 461 9 4 5 7 35 7 65 l-1 55
-115 13 c-63 7 -135 16 -160 20 l-45 7 -2 858 c-1 472 1 865 4 873 4 12 46 14
239 14 129 0 234 -2 234 -5 0 -2 16 -91 35 -196 19 -106 35 -193 35 -193 0 -1
40 -1 90 -1 l90 0 -5 85 c-2 47 -7 153 -11 235 -6 146 -10 212 -13 228 0 4
-381 7 -846 7 l-845 0 -1 -72z"/>
</g>
</svg>
