<?xml version="1.0" encoding="UTF-8" standalone="no"?>
<!DOCTYPE svg PUBLIC "-//W3C//DTD SVG 1.1//EN" "http://www.w3.org/Graphics/SVG/1.1/DTD/svg11.dtd">
<svg width="100%" height="100%" viewBox="0 0 307 266" version="1.1" xmlns="http://www.w3.org/2000/svg" xmlns:xlink="http://www.w3.org/1999/xlink" xml:space="preserve" xmlns:serif="http://www.serif.com/" style="fill-rule:evenodd;clip-rule:evenodd;stroke-linejoin:round;stroke-miterlimit:2;">
    <g transform="matrix(1,0,0,1,-5.41635,-13.1928)">
        <g transform="matrix(0.81293,0,0,0.816436,-88.6828,-19.589)">
            <g transform="matrix(1.38201,0,0,1.19168,-89.0465,-192.493)">
                <path d="M284.538,195.225L420.885,467.921L148.19,467.921L284.538,195.225ZM173.885,450.79L395.19,450.79L284.538,229.485L173.885,450.79Z" style="fill:white;"/>
            </g>
        </g>
        <g transform="matrix(0.81293,0,0,0.816436,-88.6828,-19.589)">
            <g transform="matrix(1.51678,0,0,1.51026,-71.1186,-98.9303)">
                <path d="M290.356,192.16L291.518,216.797L288.574,216.797C288.006,212.458 287.231,209.359 286.25,207.5C284.649,204.504 282.518,202.296 279.858,200.876C277.198,199.456 273.699,198.746 269.361,198.746L254.564,198.746L254.564,279.007C254.564,285.463 255.261,289.492 256.655,291.093C258.618,293.262 261.639,294.347 265.72,294.347L269.361,294.347L269.361,297.213L224.814,297.213L224.814,294.347L228.533,294.347C232.975,294.347 236.125,293.004 237.984,290.318C239.121,288.665 239.689,284.895 239.689,279.007L239.689,198.746L227.061,198.746C222.154,198.746 218.668,199.107 216.602,199.83C213.916,200.812 211.618,202.697 209.707,205.486C207.796,208.275 206.66,212.045 206.298,216.797L203.354,216.797L204.594,192.16L290.356,192.16Z" style="fill:white;fill-rule:nonzero;stroke:white;stroke-width:0.81px;"/>
            </g>
        </g>
    </g>
</svg>
