<?xml version="1.0" encoding="UTF-8" standalone="no"?>
<!DOCTYPE svg PUBLIC "-//W3C//DTD SVG 1.1//EN" "http://www.w3.org/Graphics/SVG/1.1/DTD/svg11.dtd">
<svg width="100%" height="100%" viewBox="0 0 623 276" version="1.1" xmlns="http://www.w3.org/2000/svg" xmlns:xlink="http://www.w3.org/1999/xlink" xml:space="preserve" xmlns:serif="http://www.serif.com/" style="fill-rule:evenodd;clip-rule:evenodd;stroke-linejoin:round;stroke-miterlimit:2;">
    <g transform="matrix(1,0,0,1,-4.41635,-13.1928)">
        <g id="Artboard1" transform="matrix(1.62777,0,0,0.816436,-177.573,-19.589)">
            <rect x="109.09" y="23.993" width="392.438" height="358.773" style="fill:none;"/>
            <clipPath id="_clip1">
                <rect x="109.09" y="23.993" width="392.438" height="358.773"/>
            </clipPath>
            <g clip-path="url(#_clip1)">
                <g transform="matrix(0.690194,0,0,1.19168,9.52353,-192.493)">
                    <path d="M284.538,195.225L420.885,467.921L148.19,467.921L284.538,195.225ZM173.885,450.79L395.19,450.79L284.538,229.485L173.885,450.79Z" style="fill:rgb(130,39,62);"/>
                </g>
                <g transform="matrix(0.614339,0,0,0.732624,109.733,153.978)">
                    <rect x="133.758" y="105.907" width="618.479" height="154.423" style="fill:white;"/>
                </g>
                <g transform="matrix(0.7575,0,0,1.51026,22.6024,-111.476)">
                    <g transform="matrix(138.547,0,0,138.547,198.551,297.213)">
                        <path d="M0.579,-0.662L0.586,-0.507L0.567,-0.507C0.564,-0.534 0.559,-0.554 0.553,-0.565C0.543,-0.584 0.529,-0.598 0.512,-0.607C0.496,-0.616 0.474,-0.621 0.446,-0.621L0.353,-0.621L0.353,-0.115C0.353,-0.074 0.357,-0.049 0.366,-0.039C0.379,-0.025 0.398,-0.018 0.423,-0.018L0.446,-0.018L0.446,0L0.166,0L0.166,-0.018L0.189,-0.018C0.217,-0.018 0.237,-0.027 0.249,-0.043C0.256,-0.054 0.259,-0.078 0.259,-0.115L0.259,-0.621L0.18,-0.621C0.149,-0.621 0.127,-0.618 0.114,-0.614C0.097,-0.608 0.082,-0.596 0.07,-0.578C0.058,-0.561 0.051,-0.537 0.049,-0.507L0.03,-0.507L0.038,-0.662L0.579,-0.662Z" style="fill:rgb(130,39,62);fill-rule:nonzero;"/>
                    </g>
                    <g transform="matrix(125.03,0,0,125.03,279.025,297.213)">
                        <path d="M0.162,-0.46L0.162,-0.36C0.2,-0.427 0.238,-0.46 0.277,-0.46C0.295,-0.46 0.31,-0.455 0.322,-0.444C0.333,-0.433 0.339,-0.421 0.339,-0.406C0.339,-0.394 0.335,-0.383 0.327,-0.374C0.318,-0.365 0.308,-0.361 0.296,-0.361C0.285,-0.361 0.272,-0.366 0.258,-0.378C0.244,-0.389 0.233,-0.395 0.227,-0.395C0.221,-0.395 0.214,-0.391 0.208,-0.385C0.193,-0.371 0.178,-0.349 0.162,-0.319L0.162,-0.104C0.162,-0.08 0.165,-0.061 0.171,-0.048C0.176,-0.04 0.183,-0.032 0.194,-0.026C0.205,-0.021 0.22,-0.018 0.24,-0.018L0.24,0L0.011,0L0.011,-0.018C0.034,-0.018 0.051,-0.021 0.062,-0.028C0.07,-0.034 0.076,-0.042 0.079,-0.053C0.081,-0.059 0.082,-0.075 0.082,-0.101L0.082,-0.274C0.082,-0.326 0.08,-0.357 0.078,-0.367C0.076,-0.377 0.072,-0.384 0.067,-0.389C0.061,-0.393 0.054,-0.396 0.045,-0.396C0.035,-0.396 0.024,-0.393 0.011,-0.388L0.006,-0.406L0.142,-0.46L0.162,-0.46Z" style="fill:rgb(130,39,62);fill-rule:nonzero;"/>
                    </g>
                    <g transform="matrix(125.03,0,0,125.03,320.661,297.213)">
                        <path d="M0.145,-0.694C0.159,-0.694 0.17,-0.69 0.18,-0.68C0.19,-0.67 0.194,-0.659 0.194,-0.645C0.194,-0.631 0.19,-0.62 0.18,-0.61C0.17,-0.6 0.159,-0.595 0.145,-0.595C0.131,-0.595 0.12,-0.6 0.11,-0.61C0.1,-0.62 0.095,-0.631 0.095,-0.645C0.095,-0.659 0.1,-0.67 0.11,-0.68C0.119,-0.69 0.131,-0.694 0.145,-0.694ZM0.186,-0.46L0.186,-0.101C0.186,-0.073 0.188,-0.054 0.192,-0.045C0.196,-0.036 0.202,-0.029 0.21,-0.024C0.218,-0.02 0.232,-0.018 0.253,-0.018L0.253,0L0.036,0L0.036,-0.018C0.058,-0.018 0.073,-0.02 0.08,-0.024C0.088,-0.028 0.094,-0.035 0.098,-0.045C0.102,-0.055 0.104,-0.073 0.104,-0.101L0.104,-0.273C0.104,-0.322 0.103,-0.353 0.1,-0.368C0.098,-0.378 0.094,-0.385 0.089,-0.389C0.084,-0.393 0.078,-0.396 0.069,-0.396C0.06,-0.396 0.049,-0.393 0.036,-0.388L0.029,-0.406L0.164,-0.46L0.186,-0.46Z" style="fill:rgb(130,39,62);fill-rule:nonzero;"/>
                    </g>
                    <g transform="matrix(125.03,0,0,125.03,355.398,297.213)">
                        <path d="M0.285,-0.064C0.239,-0.029 0.21,-0.008 0.198,-0.003C0.181,0.005 0.162,0.009 0.142,0.009C0.111,0.009 0.086,-0.001 0.066,-0.022C0.046,-0.044 0.036,-0.071 0.036,-0.106C0.036,-0.128 0.041,-0.147 0.05,-0.163C0.064,-0.185 0.087,-0.206 0.12,-0.225C0.153,-0.245 0.208,-0.268 0.285,-0.296L0.285,-0.314C0.285,-0.359 0.278,-0.389 0.263,-0.406C0.249,-0.422 0.229,-0.431 0.202,-0.431C0.181,-0.431 0.165,-0.425 0.153,-0.414C0.14,-0.403 0.134,-0.39 0.134,-0.376L0.135,-0.348C0.135,-0.333 0.131,-0.321 0.124,-0.313C0.116,-0.305 0.106,-0.301 0.094,-0.301C0.082,-0.301 0.072,-0.305 0.064,-0.313C0.057,-0.322 0.053,-0.333 0.053,-0.348C0.053,-0.376 0.067,-0.402 0.096,-0.425C0.124,-0.449 0.165,-0.46 0.216,-0.46C0.256,-0.46 0.289,-0.454 0.314,-0.44C0.333,-0.43 0.347,-0.415 0.356,-0.393C0.362,-0.379 0.365,-0.35 0.365,-0.307L0.365,-0.155C0.365,-0.113 0.366,-0.087 0.368,-0.077C0.369,-0.067 0.372,-0.061 0.376,-0.058C0.379,-0.054 0.384,-0.053 0.389,-0.053C0.394,-0.053 0.398,-0.054 0.402,-0.056C0.409,-0.06 0.422,-0.072 0.442,-0.092L0.442,-0.064C0.405,-0.016 0.371,0.009 0.337,0.009C0.321,0.009 0.309,0.003 0.299,-0.008C0.29,-0.019 0.285,-0.038 0.285,-0.064ZM0.285,-0.096L0.285,-0.267C0.236,-0.247 0.204,-0.233 0.189,-0.225C0.164,-0.211 0.145,-0.196 0.134,-0.18C0.123,-0.165 0.118,-0.147 0.118,-0.129C0.118,-0.105 0.125,-0.086 0.139,-0.071C0.153,-0.055 0.169,-0.047 0.187,-0.047C0.212,-0.047 0.244,-0.064 0.285,-0.096Z" style="fill:rgb(130,39,62);fill-rule:nonzero;"/>
                    </g>
                    <g transform="matrix(125.03,0,0,125.03,410.893,297.213)">
                        <path d="M0.162,-0.366C0.214,-0.429 0.264,-0.46 0.312,-0.46C0.336,-0.46 0.357,-0.454 0.375,-0.442C0.392,-0.43 0.406,-0.41 0.417,-0.382C0.424,-0.362 0.427,-0.332 0.427,-0.292L0.427,-0.101C0.427,-0.073 0.43,-0.054 0.434,-0.043C0.438,-0.035 0.443,-0.029 0.451,-0.024C0.459,-0.02 0.474,-0.018 0.496,-0.018L0.496,0L0.274,0L0.274,-0.018L0.284,-0.018C0.305,-0.018 0.319,-0.021 0.327,-0.027C0.336,-0.033 0.341,-0.043 0.345,-0.055C0.346,-0.06 0.347,-0.075 0.347,-0.101L0.347,-0.284C0.347,-0.325 0.341,-0.354 0.331,-0.373C0.32,-0.391 0.302,-0.4 0.277,-0.4C0.239,-0.4 0.2,-0.379 0.162,-0.337L0.162,-0.101C0.162,-0.071 0.163,-0.052 0.167,-0.045C0.172,-0.035 0.178,-0.029 0.186,-0.024C0.194,-0.02 0.21,-0.018 0.234,-0.018L0.234,0L0.013,0L0.013,-0.018L0.023,-0.018C0.046,-0.018 0.061,-0.023 0.069,-0.035C0.077,-0.046 0.081,-0.069 0.081,-0.101L0.081,-0.267C0.081,-0.321 0.08,-0.354 0.077,-0.365C0.075,-0.377 0.071,-0.385 0.066,-0.389C0.061,-0.393 0.054,-0.396 0.046,-0.396C0.037,-0.396 0.026,-0.393 0.013,-0.388L0.006,-0.406L0.141,-0.46L0.162,-0.46L0.162,-0.366Z" style="fill:rgb(130,39,62);fill-rule:nonzero;"/>
                    </g>
                    <g transform="matrix(125.03,0,0,125.03,473.408,297.213)">
                        <path d="M0.151,-0.163C0.124,-0.176 0.103,-0.195 0.088,-0.219C0.073,-0.243 0.066,-0.269 0.066,-0.298C0.066,-0.343 0.083,-0.381 0.116,-0.413C0.149,-0.444 0.192,-0.46 0.244,-0.46C0.287,-0.46 0.324,-0.45 0.355,-0.429L0.45,-0.429C0.464,-0.429 0.472,-0.429 0.474,-0.428C0.476,-0.427 0.478,-0.426 0.479,-0.424C0.481,-0.421 0.482,-0.416 0.482,-0.408C0.482,-0.4 0.481,-0.394 0.479,-0.391C0.479,-0.389 0.477,-0.388 0.474,-0.387C0.472,-0.386 0.464,-0.385 0.45,-0.385L0.392,-0.385C0.41,-0.362 0.419,-0.332 0.419,-0.295C0.419,-0.254 0.403,-0.218 0.371,-0.188C0.339,-0.159 0.296,-0.144 0.243,-0.144C0.221,-0.144 0.198,-0.147 0.175,-0.154C0.16,-0.141 0.151,-0.131 0.146,-0.121C0.141,-0.112 0.138,-0.104 0.138,-0.098C0.138,-0.092 0.141,-0.087 0.146,-0.082C0.152,-0.076 0.162,-0.073 0.178,-0.07C0.187,-0.069 0.21,-0.068 0.246,-0.067C0.313,-0.065 0.357,-0.063 0.376,-0.06C0.407,-0.056 0.431,-0.045 0.449,-0.026C0.467,-0.008 0.476,0.014 0.476,0.041C0.476,0.078 0.459,0.112 0.424,0.145C0.374,0.192 0.307,0.216 0.226,0.216C0.163,0.216 0.11,0.202 0.066,0.173C0.042,0.157 0.03,0.14 0.03,0.123C0.03,0.115 0.032,0.107 0.035,0.099C0.041,0.087 0.052,0.07 0.069,0.049C0.072,0.046 0.088,0.028 0.119,-0.004C0.102,-0.014 0.09,-0.023 0.083,-0.031C0.076,-0.039 0.073,-0.048 0.073,-0.058C0.073,-0.069 0.077,-0.083 0.087,-0.098C0.096,-0.113 0.117,-0.135 0.151,-0.163ZM0.236,-0.437C0.212,-0.437 0.192,-0.427 0.175,-0.408C0.159,-0.389 0.151,-0.36 0.151,-0.32C0.151,-0.268 0.162,-0.229 0.184,-0.2C0.201,-0.179 0.222,-0.168 0.249,-0.168C0.273,-0.168 0.294,-0.177 0.31,-0.196C0.326,-0.214 0.333,-0.243 0.333,-0.283C0.333,-0.335 0.322,-0.375 0.3,-0.405C0.283,-0.426 0.262,-0.437 0.236,-0.437ZM0.146,0C0.131,0.017 0.119,0.032 0.111,0.046C0.104,0.061 0.1,0.074 0.1,0.086C0.1,0.102 0.109,0.115 0.128,0.127C0.16,0.147 0.208,0.157 0.269,0.157C0.328,0.157 0.371,0.147 0.399,0.126C0.427,0.106 0.44,0.083 0.44,0.06C0.44,0.043 0.432,0.031 0.416,0.024C0.399,0.017 0.365,0.013 0.315,0.011C0.242,0.009 0.185,0.006 0.146,0Z" style="fill:rgb(130,39,62);fill-rule:nonzero;"/>
                    </g>
                    <g transform="matrix(125.03,0,0,125.03,535.923,297.213)">
                        <path d="M0.185,-0.694L0.185,-0.101C0.185,-0.073 0.187,-0.055 0.191,-0.045C0.195,-0.036 0.201,-0.029 0.21,-0.025C0.218,-0.02 0.234,-0.018 0.257,-0.018L0.257,0L0.038,0L0.038,-0.018C0.059,-0.018 0.073,-0.02 0.08,-0.024C0.088,-0.028 0.093,-0.035 0.098,-0.045C0.102,-0.055 0.104,-0.073 0.104,-0.101L0.104,-0.507C0.104,-0.558 0.103,-0.589 0.101,-0.6C0.098,-0.612 0.095,-0.62 0.09,-0.624C0.085,-0.628 0.078,-0.63 0.07,-0.63C0.062,-0.63 0.051,-0.628 0.038,-0.623L0.03,-0.64L0.163,-0.694L0.185,-0.694Z" style="fill:rgb(130,39,62);fill-rule:nonzero;"/>
                    </g>
                    <g transform="matrix(125.03,0,0,125.03,570.661,297.213)">
                        <path d="M0.106,-0.279C0.106,-0.212 0.122,-0.16 0.155,-0.123C0.187,-0.085 0.226,-0.066 0.27,-0.066C0.299,-0.066 0.324,-0.074 0.346,-0.09C0.368,-0.106 0.386,-0.134 0.4,-0.173L0.416,-0.163C0.409,-0.118 0.389,-0.078 0.356,-0.041C0.323,-0.005 0.282,0.014 0.232,0.014C0.179,0.014 0.133,-0.007 0.094,-0.049C0.056,-0.091 0.037,-0.147 0.037,-0.218C0.037,-0.294 0.057,-0.354 0.096,-0.397C0.135,-0.44 0.184,-0.461 0.244,-0.461C0.294,-0.461 0.335,-0.444 0.367,-0.411C0.399,-0.378 0.416,-0.334 0.416,-0.279L0.106,-0.279ZM0.106,-0.307L0.313,-0.307C0.312,-0.336 0.308,-0.356 0.303,-0.368C0.295,-0.386 0.283,-0.4 0.267,-0.411C0.251,-0.421 0.234,-0.426 0.216,-0.426C0.189,-0.426 0.165,-0.416 0.144,-0.395C0.122,-0.374 0.11,-0.345 0.106,-0.307Z" style="fill:rgb(130,39,62);fill-rule:nonzero;"/>
                    </g>
                </g>
                <g transform="matrix(2.82134,0,0,1.26869,-607.365,11.8005)">
                    <path d="M347.512,262.397L301.475,262.397L301.475,278.423L349.502,278.423L347.512,262.397Z" style="fill:rgb(130,39,62);"/>
                </g>
            </g>
        </g>
    </g>
</svg>
