<?xml version="1.0" encoding="UTF-8" standalone="no"?>
<!DOCTYPE svg PUBLIC "-//W3C//DTD SVG 1.1//EN" "http://www.w3.org/Graphics/SVG/1.1/DTD/svg11.dtd">
<svg width="100%" height="100%" viewBox="0 0 307 266" version="1.1" xmlns="http://www.w3.org/2000/svg" xmlns:xlink="http://www.w3.org/1999/xlink" xml:space="preserve" xmlns:serif="http://www.serif.com/" style="fill-rule:evenodd;clip-rule:evenodd;stroke-linejoin:round;stroke-miterlimit:2;">
    <g transform="matrix(1,0,0,1,-4.41635,-13.1928)">
        <g transform="matrix(0.81293,0,0,0.816436,-88.6828,-19.589)">
            <g transform="matrix(1.38201,0,0,1.19168,-90.2766,-192.493)">
                <path d="M284.538,195.225L420.885,467.921L148.19,467.921L284.538,195.225ZM173.885,450.79L395.19,450.79L284.538,229.485L173.885,450.79Z" style="fill:rgb(130,39,62);"/>
            </g>
        </g>
        <g transform="matrix(0.81293,0,0,0.816436,-88.6828,-19.589)">
            <g transform="matrix(1.51678,0,0,1.51026,-72.3487,-98.9303)">
                <g transform="matrix(158.663,0,0,158.663,198.551,297.213)">
                    <path d="M0.579,-0.662L0.586,-0.507L0.567,-0.507C0.564,-0.534 0.559,-0.554 0.553,-0.565C0.543,-0.584 0.529,-0.598 0.512,-0.607C0.496,-0.616 0.474,-0.621 0.446,-0.621L0.353,-0.621L0.353,-0.115C0.353,-0.074 0.357,-0.049 0.366,-0.039C0.379,-0.025 0.398,-0.018 0.423,-0.018L0.446,-0.018L0.446,0L0.166,0L0.166,-0.018L0.189,-0.018C0.217,-0.018 0.237,-0.027 0.249,-0.043C0.256,-0.054 0.259,-0.078 0.259,-0.115L0.259,-0.621L0.18,-0.621C0.149,-0.621 0.127,-0.618 0.114,-0.614C0.097,-0.608 0.082,-0.596 0.07,-0.578C0.058,-0.561 0.051,-0.537 0.049,-0.507L0.03,-0.507L0.038,-0.662L0.579,-0.662Z" style="fill:rgb(130,39,62);fill-rule:nonzero;"/>
                </g>
            </g>
        </g>
    </g>
</svg>
